<svg xmlns="http://www.w3.org/2000/svg" xmlns:xlink="http://www.w3.org/1999/xlink" width="500" zoomAndPan="magnify" viewBox="0 0 375 135.000003" height="180" preserveAspectRatio="xMidYMid meet" version="1.2"><defs/><g id="d04b86bc44"><g style="fill:#000000;fill-opacity:1;"><g transform="translate(8.48618, 93.43291)"><path style="stroke:none" d="M 24.625 -56.03125 C 21.519531 -56.03125 19.1875 -55.335938 17.625 -53.953125 C 16.070312 -52.578125 15.296875 -50.363281 15.296875 -47.3125 L 15.296875 -43.96875 L 25.5 -43.96875 L 25.5 -38.171875 L 15.296875 -38.171875 L 15.296875 0 L 8.703125 0 L 8.703125 -38.171875 L 1.140625 -38.171875 L 1.140625 -43.96875 L 8.703125 -43.96875 L 8.703125 -47.84375 C 8.703125 -52.65625 10.140625 -56.257812 13.015625 -58.65625 C 15.890625 -61.0625 19.878906 -62.265625 24.984375 -62.265625 L 25.5 -62.265625 L 25.5 -56.03125 Z M 24.625 -56.03125 "/></g></g><g style="fill:#000000;fill-opacity:1;"><g transform="translate(34.604929, 93.43291)"><path style="stroke:none" d="M 40.015625 -7.03125 C 36.492188 -1.875 31.25 0.703125 24.28125 0.703125 C 17.945312 0.703125 12.785156 -1.492188 8.796875 -5.890625 C 4.921875 -10.234375 2.984375 -15.597656 2.984375 -21.984375 C 2.984375 -28.378906 4.921875 -33.742188 8.796875 -38.078125 C 12.785156 -42.484375 18.09375 -44.6875 24.71875 -44.6875 C 31.34375 -44.6875 36.441406 -42.078125 40.015625 -36.859375 L 40.015625 -43.96875 L 46.609375 -43.96875 L 46.609375 0 L 40.015625 0 Z M 25.15625 -5.28125 C 29.90625 -5.28125 33.65625 -6.921875 36.40625 -10.203125 C 39.050781 -13.304688 40.375 -17.234375 40.375 -21.984375 C 40.375 -26.734375 39.050781 -30.664062 36.40625 -33.78125 C 33.65625 -37.0625 29.90625 -38.703125 25.15625 -38.703125 C 20.46875 -38.703125 16.65625 -37.0625 13.71875 -33.78125 C 10.96875 -30.664062 9.59375 -26.734375 9.59375 -21.984375 C 9.59375 -17.234375 10.96875 -13.304688 13.71875 -10.203125 C 16.65625 -6.921875 20.46875 -5.28125 25.15625 -5.28125 Z M 25.15625 -5.28125 "/></g></g><g style="fill:#000000;fill-opacity:1;"><g transform="translate(86.930591, 93.43291)"><path style="stroke:none" d="M 12.3125 -36.859375 C 15.882812 -42.078125 21.132812 -44.6875 28.0625 -44.6875 C 34.394531 -44.6875 39.523438 -42.484375 43.453125 -38.078125 C 47.378906 -33.742188 49.34375 -28.378906 49.34375 -21.984375 C 49.34375 -15.597656 47.378906 -10.234375 43.453125 -5.890625 C 39.523438 -1.492188 34.234375 0.703125 27.578125 0.703125 C 20.921875 0.703125 15.832031 -1.875 12.3125 -7.03125 L 12.3125 0 L 5.71875 0 L 5.71875 -61.5625 L 12.3125 -61.5625 Z M 27.171875 -5.28125 C 31.867188 -5.28125 35.679688 -6.921875 38.609375 -10.203125 C 41.367188 -13.304688 42.75 -17.234375 42.75 -21.984375 C 42.75 -26.734375 41.367188 -30.664062 38.609375 -33.78125 C 35.679688 -37.0625 31.867188 -38.703125 27.171875 -38.703125 C 22.421875 -38.703125 18.671875 -37.0625 15.921875 -33.78125 C 13.285156 -30.664062 11.96875 -26.734375 11.96875 -21.984375 C 11.96875 -17.234375 13.285156 -13.304688 15.921875 -10.203125 C 18.671875 -6.921875 22.421875 -5.28125 27.171875 -5.28125 Z M 27.171875 -5.28125 "/></g></g><g style="fill:#000000;fill-opacity:1;"><g transform="translate(139.168316, 93.43291)"><path style="stroke:none" d="M 37.46875 0 L 37.46875 -6.859375 C 35.882812 -4.742188 33.945312 -2.953125 31.65625 -1.484375 C 29.375 -0.0234375 26.765625 0.703125 23.828125 0.703125 C 20.898438 0.703125 18.378906 0.289062 16.265625 -0.53125 C 14.160156 -1.351562 12.316406 -2.582031 10.734375 -4.21875 C 7.097656 -7.800781 5.28125 -12.519531 5.28125 -18.375 L 5.28125 -43.96875 L 11.875 -43.96875 L 11.875 -18.5625 C 11.875 -14.507812 13.015625 -11.28125 15.296875 -8.875 C 17.585938 -6.476562 20.550781 -5.28125 24.1875 -5.28125 C 27.882812 -5.28125 31.019531 -6.507812 33.59375 -8.96875 C 36.175781 -11.488281 37.46875 -14.710938 37.46875 -18.640625 L 37.46875 -43.96875 L 44.0625 -43.96875 L 44.0625 0 Z M 37.46875 0 "/></g></g><g style="fill:#000000;fill-opacity:1;"><g transform="translate(188.943659, 93.43291)"><path style="stroke:none" d="M 12.3125 0 L 5.71875 0 L 5.71875 -61.5625 L 12.3125 -61.5625 Z M 12.3125 0 "/></g></g><g style="fill:#ff5757;fill-opacity:1;"><g transform="translate(206.972935, 93.43291)"><path style="stroke:none" d="M 5.71875 -43.96875 L 12.3125 -43.96875 L 12.3125 0 L 5.71875 0 Z M 12.578125 -59.984375 L 12.578125 -51.359375 L 5.453125 -51.359375 L 5.453125 -59.984375 Z M 12.578125 -59.984375 "/></g></g><g style="fill:#ff5757;fill-opacity:1;"><g transform="translate(225.001109, 93.43291)"><path style="stroke:none" d="M 12.3125 -43.96875 L 12.3125 -37.109375 C 13.894531 -39.222656 15.828125 -41.015625 18.109375 -42.484375 C 20.398438 -43.953125 23.007812 -44.6875 25.9375 -44.6875 C 28.875 -44.6875 31.394531 -44.273438 33.5 -43.453125 C 35.613281 -42.628906 37.460938 -41.394531 39.046875 -39.75 C 42.679688 -36.175781 44.5 -31.457031 44.5 -25.59375 L 44.5 0 L 37.90625 0 L 37.90625 -25.421875 C 37.90625 -29.460938 36.757812 -32.6875 34.46875 -35.09375 C 32.1875 -37.5 29.226562 -38.703125 25.59375 -38.703125 C 21.894531 -38.703125 18.757812 -37.46875 16.1875 -35 C 13.601562 -32.476562 12.3125 -29.253906 12.3125 -25.328125 L 12.3125 0 L 5.71875 0 L 5.71875 -43.96875 Z M 12.3125 -43.96875 "/></g></g><g style="fill:#000000;fill-opacity:1;"><g transform="translate(274.338357, 93.43291)"><path style="stroke:none" d="M 37.46875 0 L 37.46875 -6.859375 C 35.882812 -4.742188 33.945312 -2.953125 31.65625 -1.484375 C 29.375 -0.0234375 26.765625 0.703125 23.828125 0.703125 C 20.898438 0.703125 18.378906 0.289062 16.265625 -0.53125 C 14.160156 -1.351562 12.316406 -2.582031 10.734375 -4.21875 C 7.097656 -7.800781 5.28125 -12.519531 5.28125 -18.375 L 5.28125 -43.96875 L 11.875 -43.96875 L 11.875 -18.5625 C 11.875 -14.507812 13.015625 -11.28125 15.296875 -8.875 C 17.585938 -6.476562 20.550781 -5.28125 24.1875 -5.28125 C 27.882812 -5.28125 31.019531 -6.507812 33.59375 -8.96875 C 36.175781 -11.488281 37.46875 -14.710938 37.46875 -18.640625 L 37.46875 -43.96875 L 44.0625 -43.96875 L 44.0625 0 Z M 37.46875 0 "/></g></g><g style="fill:#000000;fill-opacity:1;"><g transform="translate(324.1137, 93.43291)"><path style="stroke:none" d="M 31.578125 -32.1875 C 30.992188 -36.757812 27.3125 -39.046875 20.53125 -39.046875 C 13.757812 -39.046875 10.375 -36.9375 10.375 -32.71875 C 10.375 -30.957031 11.09375 -29.625 12.53125 -28.71875 C 13.96875 -27.8125 15.769531 -27.0625 17.9375 -26.46875 C 20.113281 -25.882812 22.472656 -25.34375 25.015625 -24.84375 C 27.566406 -24.34375 29.925781 -23.640625 32.09375 -22.734375 C 34.269531 -21.828125 36.078125 -20.582031 37.515625 -19 C 38.953125 -17.414062 39.671875 -15.242188 39.671875 -12.484375 C 39.671875 -8.203125 38.054688 -4.929688 34.828125 -2.671875 C 31.597656 -0.421875 27.226562 0.703125 21.71875 0.703125 C 15.851562 0.703125 11.191406 -0.757812 7.734375 -3.6875 C 4.566406 -6.269531 2.867188 -9.644531 2.640625 -13.8125 L 9.5 -13.8125 C 9.90625 -9.757812 12.191406 -7.03125 16.359375 -5.625 C 17.878906 -5.15625 19.382812 -4.921875 20.875 -4.921875 C 22.375 -4.921875 23.769531 -5.007812 25.0625 -5.1875 C 26.351562 -5.363281 27.613281 -5.6875 28.84375 -6.15625 C 31.664062 -7.269531 33.078125 -9.175781 33.078125 -11.875 C 33.078125 -13.6875 32.359375 -15.078125 30.921875 -16.046875 C 29.484375 -17.015625 27.675781 -17.804688 25.5 -18.421875 C 23.332031 -19.035156 20.972656 -19.59375 18.421875 -20.09375 C 15.867188 -20.59375 13.507812 -21.28125 11.34375 -22.15625 C 9.175781 -23.039062 7.375 -24.242188 5.9375 -25.765625 C 4.5 -27.296875 3.78125 -29.410156 3.78125 -32.109375 C 3.78125 -36.085938 5.226562 -39.175781 8.125 -41.375 C 11.03125 -43.582031 15.328125 -44.6875 21.015625 -44.6875 C 26.410156 -44.6875 30.664062 -43.394531 33.78125 -40.8125 C 36.351562 -38.644531 37.847656 -35.769531 38.265625 -32.1875 Z M 31.578125 -32.1875 "/></g></g></g></svg>